# Created by FreeCAD <https://www.freecad.org>
v 20.000000 20.000000 0.000000
v 10.000000 40.000000 0.000000
v 20.000000 20.000000 10.000000
v 10.000000 40.000000 10.000000
v 20.000000 10.000000 10.000000
v 20.000000 0.000000 0.000000
v 20.000000 10.000000 20.000000
v 20.000000 0.000000 20.000000
v -0.000000 10.000000 40.000000
v 0.000000 0.000000 40.000000
v 0.981353 0.000000 39.975910
v 0.981353 10.000000 39.975910
v 1.960343 0.000000 39.903694
v 1.960343 10.000000 39.903694
v 2.934609 10.000000 39.783531
v 2.934609 0.000000 39.783531
v 3.901806 10.000000 39.615707
v 3.901806 0.000000 39.615707
v 4.859603 10.000000 39.400623
v 4.859603 0.000000 39.400623
v 5.805694 10.000000 39.138805
v 5.805694 0.000000 39.138805
v 6.737797 0.000000 38.830883
v 6.737797 10.000000 38.830883
v 7.653669 10.000000 38.477592
v 7.653669 0.000000 38.477592
v 8.551102 10.000000 38.079784
v 8.551102 0.000000 38.079784
v 9.427935 0.000000 37.638424
v 9.427935 10.000000 37.638424
v 10.282055 10.000000 37.154572
v 10.282055 0.000000 37.154572
v 11.111404 10.000000 36.629391
v 11.111404 0.000000 36.629391
v 11.913986 10.000000 36.064152
v 11.913986 0.000000 36.064152
v 12.687865 0.000000 35.460209
v 12.687865 10.000000 35.460209
v 13.431179 10.000000 34.819023
v 13.431179 0.000000 34.819023
v 14.142136 0.000000 34.142136
v 14.142136 10.000000 34.142136
v 14.819022 10.000000 33.431179
v 14.819022 0.000000 33.431179
v 15.460209 0.000000 32.687866
v 15.460209 10.000000 32.687866
v 16.064150 10.000000 31.913986
v 16.064150 0.000000 31.913986
v 16.629393 10.000000 31.111404
v 16.629393 0.000000 31.111404
v 17.154572 10.000000 30.282055
v 17.154572 0.000000 30.282055
v 17.638426 10.000000 29.427935
v 17.638426 0.000000 29.427935
v 18.079786 10.000000 28.551102
v 18.079786 0.000000 28.551102
v 18.477591 10.000000 27.653669
v 18.477591 0.000000 27.653669
v 18.830881 0.000000 26.737797
v 18.830881 10.000000 26.737797
v 19.138807 10.000000 25.805693
v 19.138807 0.000000 25.805693
v 19.400625 0.000000 24.859604
v 19.400625 10.000000 24.859604
v 19.615705 10.000000 23.901806
v 19.615705 0.000000 23.901806
v 19.783529 0.000000 22.934610
v 19.783529 10.000000 22.934610
v 19.903694 10.000000 21.960342
v 19.903694 0.000000 21.960342
v 19.975908 10.000000 20.981354
v 19.975908 0.000000 20.981354
v -20.000000 10.000000 10.000000
v -20.000000 40.000000 10.000000
v -20.000000 0.000000 0.000000
v -20.000000 40.000000 0.000000
v -19.975908 10.000000 20.981354
v -19.903694 10.000000 21.960342
v -20.000000 10.000000 20.000000
v -19.783529 10.000000 22.934610
v -19.138807 10.000000 25.805693
v -18.830881 10.000000 26.737797
v -19.400625 10.000000 24.859604
v -19.615705 10.000000 23.901806
v -18.477591 10.000000 27.653669
v -18.079786 10.000000 28.551102
v -17.638426 10.000000 29.427935
v -17.154572 10.000000 30.282055
v -16.629393 10.000000 31.111404
v -16.064150 10.000000 31.913986
v -15.460209 10.000000 32.687866
v -14.819022 10.000000 33.431179
v -14.142136 10.000000 34.142136
v -13.431179 10.000000 34.819023
v -12.687865 10.000000 35.460209
v -11.913986 10.000000 36.064152
v -11.111404 10.000000 36.629391
v -10.282055 10.000000 37.154572
v -9.427935 10.000000 37.638424
v -8.551102 10.000000 38.079784
v -7.653669 10.000000 38.477592
v -6.737797 10.000000 38.830883
v -5.805694 10.000000 39.138805
v -2.934609 10.000000 39.783531
v -3.901806 10.000000 39.615707
v -4.859603 10.000000 39.400623
v -0.981353 10.000000 39.975910
v -1.960343 10.000000 39.903694
v -20.000000 0.000000 20.000000
v -19.975908 0.000000 20.981354
v -19.903694 0.000000 21.960342
v -19.783529 0.000000 22.934610
v -19.615705 0.000000 23.901806
v -19.400625 0.000000 24.859604
v -19.138807 0.000000 25.805693
v -18.830881 0.000000 26.737797
v -18.477591 0.000000 27.653669
v -18.079786 0.000000 28.551102
v -17.638426 0.000000 29.427935
v -17.154572 0.000000 30.282055
v -16.629393 0.000000 31.111404
v -16.064150 0.000000 31.913986
v -15.460209 0.000000 32.687866
v -14.819022 0.000000 33.431179
v -14.142136 0.000000 34.142136
v -13.431179 0.000000 34.819023
v -12.687865 0.000000 35.460209
v -11.913986 0.000000 36.064152
v -11.111404 0.000000 36.629391
v -10.282055 0.000000 37.154572
v -9.427935 0.000000 37.638424
v -8.551102 0.000000 38.079784
v -7.653669 0.000000 38.477592
v -6.737797 0.000000 38.830883
v -5.805694 0.000000 39.138805
v -4.859603 0.000000 39.400623
v -3.901806 0.000000 39.615707
v -2.934609 0.000000 39.783531
v -1.960343 0.000000 39.903694
v -0.981353 0.000000 39.975910
vn 0.894427 0.447214 -0.000000
vn 0.894427 0.447214 0.000000
vn 1.000000 0.000000 0.000000
vn 1.000000 0.000000 0.000000
vn 1.000000 0.000000 0.000000
vn 1.000000 0.000000 0.000000
vn 0.024540 0.000000 0.999699
vn 0.073566 0.000000 0.997290
vn 0.024540 0.000000 0.999699
vn 0.073566 0.000000 0.997290
vn 0.122409 0.000000 0.992480
vn 0.122409 0.000000 0.992480
vn 0.170961 0.000000 0.985278
vn 0.170961 0.000000 0.985278
vn 0.219105 0.000000 0.975701
vn 0.219105 0.000000 0.975701
vn 0.266712 0.000000 0.963776
vn 0.313679 0.000000 0.949529
vn 0.266712 0.000000 0.963776
vn 0.313679 0.000000 0.949529
vn 0.359895 0.000000 0.932993
vn 0.359895 0.000000 0.932993
vn 0.405244 0.000000 0.914208
vn 0.405244 0.000000 0.914208
vn 0.449611 0.000000 0.893224
vn 0.449611 0.000000 0.893224
vn 0.492898 0.000000 0.870087
vn 0.492898 0.000000 0.870087
vn 0.534998 0.000000 0.844853
vn 0.534998 0.000000 0.844853
vn 0.575806 0.000000 0.817586
vn 0.575806 0.000000 0.817586
vn 0.615233 0.000000 0.788346
vn 0.615233 0.000000 0.788346
vn 0.653172 0.000000 0.757209
vn 0.653172 0.000000 0.757209
vn 0.689541 0.000000 0.724247
vn 0.689541 0.000000 0.724247
vn 0.724247 0.000000 0.689540
vn 0.724247 0.000000 0.689540
vn 0.757209 0.000000 0.653173
vn 0.757209 0.000000 0.653173
vn 0.788347 0.000000 0.615231
vn 0.788347 0.000000 0.615231
vn 0.817584 0.000000 0.575809
vn 0.817584 0.000000 0.575809
vn 0.844854 0.000000 0.534997
vn 0.844854 0.000000 0.534997
vn 0.870086 0.000000 0.492899
vn 0.870086 0.000000 0.492899
vn 0.893224 0.000000 0.449611
vn 0.893224 0.000000 0.449611
vn 0.914210 0.000000 0.405241
vn 0.932993 0.000000 0.359895
vn 0.914210 0.000000 0.405241
vn 0.932993 0.000000 0.359895
vn 0.949528 0.000000 0.313682
vn 0.963776 0.000000 0.266713
vn 0.949528 0.000000 0.313682
vn 0.963776 0.000000 0.266713
vn 0.975702 0.000000 0.219101
vn 0.985278 0.000000 0.170961
vn 0.975702 0.000000 0.219101
vn 0.985278 0.000000 0.170961
vn 0.992480 0.000000 0.122411
vn 0.992480 0.000000 0.122411
vn 0.997290 0.000000 0.073564
vn 0.999699 0.000000 0.024542
vn 0.997290 0.000000 0.073564
vn 0.999699 0.000000 0.024542
vn 0.000000 0.000000 1.000000
vn 0.000000 0.000000 1.000000
vn 0.000000 0.000000 1.000000
vn -0.000000 0.000000 -1.000000
vn 0.000000 0.000000 -1.000000
vn 0.000000 0.000000 -1.000000
vn -0.000000 1.000000 0.000000
vn -0.000000 1.000000 0.000000
vn -0.000000 1.000000 0.000000
vn -0.000000 1.000000 0.000000
vn -0.000000 1.000000 0.000000
vn -0.000000 1.000000 0.000000
vn -0.000000 1.000000 0.000000
vn -0.000000 1.000000 0.000000
vn -0.000000 1.000000 0.000000
vn -0.000000 1.000000 0.000000
vn -0.000000 1.000000 0.000000
vn -0.000000 1.000000 0.000000
vn -0.000000 1.000000 0.000000
vn -0.000000 1.000000 0.000000
vn -0.000000 1.000000 0.000000
vn -0.000000 1.000000 0.000000
vn -0.000000 1.000000 0.000000
vn -0.000000 1.000000 0.000000
vn -0.000000 1.000000 0.000000
vn -0.000000 1.000000 0.000000
vn -0.000000 1.000000 0.000000
vn -0.000000 1.000000 0.000000
vn -0.000000 1.000000 0.000000
vn -0.000000 1.000000 0.000000
vn -0.000000 1.000000 0.000000
vn -0.000000 1.000000 0.000000
vn -0.000000 1.000000 0.000000
vn -0.000000 1.000000 0.000000
vn 0.000000 1.000000 0.000000
vn -0.000000 1.000000 0.000000
vn -0.000000 1.000000 0.000000
vn 0.000000 1.000000 0.000000
vn 0.000000 1.000000 0.000000
vn 0.000000 1.000000 0.000000
vn 0.000000 1.000000 0.000000
vn 0.000000 1.000000 0.000000
vn 0.000000 1.000000 0.000000
vn 0.000000 1.000000 0.000000
vn 0.000000 1.000000 0.000000
vn 0.000000 1.000000 0.000000
vn 0.000000 1.000000 0.000000
vn 0.000000 1.000000 0.000000
vn 0.000000 1.000000 0.000000
vn 0.000000 1.000000 0.000000
vn 0.000000 1.000000 0.000000
vn 0.000000 1.000000 0.000000
vn 0.000000 1.000000 0.000000
vn 0.000000 1.000000 0.000000
vn 0.000000 1.000000 0.000000
vn 0.000000 1.000000 0.000000
vn 0.000000 1.000000 0.000000
vn 0.000000 1.000000 0.000000
vn 0.000000 1.000000 0.000000
vn 0.000000 1.000000 0.000000
vn 0.000000 1.000000 0.000000
vn 0.000000 1.000000 0.000000
vn 0.000000 1.000000 0.000000
vn 0.000000 1.000000 0.000000
vn 0.000000 1.000000 0.000000
vn -0.000000 1.000000 0.000000
vn 0.000000 1.000000 0.000000
vn 0.000000 1.000000 0.000000
vn 0.000000 1.000000 0.000000
vn 0.000000 1.000000 0.000000
vn 0.000000 1.000000 0.000000
vn -1.000000 0.000000 0.000000
vn -1.000000 0.000000 0.000000
vn -1.000000 0.000000 -0.000000
vn -1.000000 0.000000 0.000000
vn -0.999699 0.000000 0.024542
vn -0.997290 0.000000 0.073564
vn -0.999699 0.000000 0.024542
vn -0.992480 0.000000 0.122411
vn -0.997290 0.000000 0.073564
vn -0.985278 0.000000 0.170961
vn -0.992480 0.000000 0.122411
vn -0.975702 0.000000 0.219101
vn -0.985278 0.000000 0.170961
vn -0.963776 0.000000 0.266713
vn -0.975702 0.000000 0.219101
vn -0.949528 0.000000 0.313682
vn -0.963776 0.000000 0.266713
vn -0.932993 0.000000 0.359895
vn -0.949528 0.000000 0.313682
vn -0.932993 0.000000 0.359895
vn -0.914210 0.000000 0.405241
vn -0.914210 0.000000 0.405241
vn -0.893224 0.000000 0.449611
vn -0.893224 0.000000 0.449611
vn -0.870086 0.000000 0.492899
vn -0.870086 0.000000 0.492899
vn -0.844854 0.000000 0.534997
vn -0.844854 0.000000 0.534997
vn -0.817584 0.000000 0.575809
vn -0.817584 0.000000 0.575809
vn -0.788347 0.000000 0.615231
vn -0.788347 0.000000 0.615231
vn -0.757209 0.000000 0.653173
vn -0.757209 0.000000 0.653173
vn -0.724247 0.000000 0.689540
vn -0.724247 0.000000 0.689540
vn -0.689541 0.000000 0.724247
vn -0.689541 0.000000 0.724247
vn -0.653172 0.000000 0.757209
vn -0.653172 0.000000 0.757209
vn -0.615233 0.000000 0.788346
vn -0.615233 0.000000 0.788346
vn -0.575806 0.000000 0.817586
vn -0.575806 0.000000 0.817586
vn -0.534998 0.000000 0.844853
vn -0.492898 0.000000 0.870087
vn -0.534998 0.000000 0.844853
vn -0.449611 0.000000 0.893224
vn -0.492898 0.000000 0.870087
vn -0.405244 0.000000 0.914208
vn -0.449611 0.000000 0.893224
vn -0.359895 0.000000 0.932993
vn -0.405244 0.000000 0.914208
vn -0.313679 0.000000 0.949529
vn -0.359895 0.000000 0.932993
vn -0.266712 0.000000 0.963776
vn -0.313679 0.000000 0.949529
vn -0.219105 0.000000 0.975701
vn -0.266712 0.000000 0.963776
vn -0.170961 0.000000 0.985278
vn -0.219105 0.000000 0.975701
vn -0.122409 0.000000 0.992480
vn -0.170961 0.000000 0.985278
vn -0.073566 0.000000 0.997290
vn -0.122409 0.000000 0.992480
vn -0.073566 0.000000 0.997290
vn -0.024540 -0.000000 0.999699
vn -0.024540 0.000000 0.999699
vn 0.000000 -1.000000 0.000000
vn 0.000000 -1.000000 0.000000
vn 0.000000 -1.000000 0.000000
vn -0.000000 -1.000000 -0.000000
vn 0.000000 -1.000000 0.000000
vn -0.000000 -1.000000 -0.000000
vn -0.000000 -1.000000 -0.000000
vn -0.000000 -1.000000 -0.000000
vn -0.000000 -1.000000 -0.000000
vn -0.000000 -1.000000 -0.000000
vn -0.000000 -1.000000 -0.000000
vn -0.000000 -1.000000 -0.000000
vn 0.000000 -1.000000 0.000000
vn -0.000000 -1.000000 -0.000000
vn -0.000000 -1.000000 -0.000000
vn -0.000000 -1.000000 -0.000000
vn -0.000000 -1.000000 -0.000000
vn -0.000000 -1.000000 -0.000000
vn -0.000000 -1.000000 -0.000000
vn 0.000000 -1.000000 0.000000
vn -0.000000 -1.000000 -0.000000
vn 0.000000 -1.000000 0.000000
vn -0.000000 -1.000000 -0.000000
vn -0.000000 -1.000000 -0.000000
vn -0.000000 -1.000000 -0.000000
vn -0.000000 -1.000000 -0.000000
vn 0.000000 -1.000000 0.000000
vn 0.000000 -1.000000 -0.000000
vn 0.000000 -1.000000 0.000000
vn 0.000000 -1.000000 0.000000
vn 0.000000 -1.000000 0.000000
vn 0.000000 -1.000000 0.000000
vn 0.000000 -1.000000 0.000000
vn 0.000000 -1.000000 -0.000000
vn 0.000000 -1.000000 0.000000
vn 0.000000 -1.000000 0.000000
vn 0.000000 -1.000000 0.000000
vn 0.000000 -1.000000 -0.000000
vn 0.000000 -1.000000 0.000000
vn 0.000000 -1.000000 -0.000000
vn 0.000000 -1.000000 -0.000000
vn 0.000000 -1.000000 -0.000000
vn 0.000000 -1.000000 -0.000000
vn 0.000000 -1.000000 0.000000
vn 0.000000 -1.000000 0.000000
vn 0.000000 -1.000000 0.000000
vn 0.000000 -1.000000 -0.000000
vn 0.000000 -1.000000 -0.000000
vn 0.000000 -1.000000 0.000000
vn 0.000000 -1.000000 0.000000
vn 0.000000 -1.000000 -0.000000
vn 0.000000 -1.000000 0.000000
vn 0.000000 -1.000000 0.000000
vn 0.000000 -1.000000 -0.000000
vn 0.000000 -1.000000 -0.000000
vn 0.000000 -1.000000 -0.000000
vn 0.000000 -1.000000 -0.000000
vn 0.000000 -1.000000 -0.000000
vn 0.000000 -1.000000 0.000000
vn 0.000000 -1.000000 0.000000
vn 0.000000 -1.000000 0.000000
vn 0.000000 -1.000000 0.000000
vn 0.000000 -1.000000 0.000000
vn 0.000000 -1.000000 0.000000
vn 0.000000 -1.000000 0.000000
vn -0.000000 1.000000 0.000000
vn 0.000000 1.000000 0.000000
f 1//1 2//1 3//1
f 3//2 2//2 4//2
f 3//3 5//3 1//3
f 1//4 5//4 6//4
f 7//5 8//5 5//5
f 5//6 8//6 6//6
f 9//7 10//7 11//7
f 12//8 11//8 13//8
f 12//9 9//9 11//9
f 14//10 12//10 13//10
f 15//11 13//11 16//11
f 15//12 14//12 13//12
f 17//13 16//13 18//13
f 17//14 15//14 16//14
f 19//15 18//15 20//15
f 19//16 17//16 18//16
f 21//17 20//17 22//17
f 21//18 22//18 23//18
f 21//19 19//19 20//19
f 24//20 21//20 23//20
f 25//21 24//21 23//21
f 25//22 23//22 26//22
f 27//23 25//23 26//23
f 27//24 26//24 28//24
f 27//25 28//25 29//25
f 30//26 27//26 29//26
f 31//27 30//27 29//27
f 31//28 29//28 32//28
f 33//29 31//29 32//29
f 33//30 32//30 34//30
f 35//31 33//31 34//31
f 35//32 34//32 36//32
f 35//33 36//33 37//33
f 38//34 35//34 37//34
f 39//35 38//35 37//35
f 39//36 37//36 40//36
f 39//37 40//37 41//37
f 42//38 39//38 41//38
f 43//39 42//39 41//39
f 43//40 41//40 44//40
f 43//41 44//41 45//41
f 46//42 43//42 45//42
f 47//43 46//43 45//43
f 47//44 45//44 48//44
f 49//45 47//45 48//45
f 49//46 48//46 50//46
f 51//47 50//47 52//47
f 51//48 49//48 50//48
f 53//49 51//49 52//49
f 53//50 52//50 54//50
f 55//51 54//51 56//51
f 55//52 53//52 54//52
f 57//53 56//53 58//53
f 57//54 58//54 59//54
f 57//55 55//55 56//55
f 60//56 57//56 59//56
f 61//57 59//57 62//57
f 61//58 62//58 63//58
f 61//59 60//59 59//59
f 64//60 61//60 63//60
f 65//61 63//61 66//61
f 65//62 66//62 67//62
f 65//63 64//63 63//63
f 68//64 65//64 67//64
f 69//65 67//65 70//65
f 69//66 68//66 67//66
f 71//67 70//67 72//67
f 71//68 72//68 8//68
f 71//69 69//69 70//69
f 7//70 71//70 8//70
f 3//71 73//71 5//71
f 4//72 74//72 73//72
f 4//73 73//73 3//73
f 75//74 1//74 6//74
f 76//75 2//75 75//75
f 75//76 2//76 1//76
f 77//77 78//77 79//77
f 78//78 80//78 79//78
f 81//79 82//79 83//79
f 83//80 82//80 84//80
f 84//81 82//81 80//81
f 85//82 86//82 82//82
f 82//83 86//83 80//83
f 87//84 88//84 86//84
f 88//85 89//85 86//85
f 86//86 90//86 80//86
f 89//87 90//87 86//87
f 91//88 92//88 90//88
f 92//89 93//89 90//89
f 93//90 94//90 90//90
f 94//91 95//91 90//91
f 96//92 97//92 95//92
f 95//93 97//93 90//93
f 97//94 98//94 90//94
f 99//95 100//95 98//95
f 101//96 102//96 100//96
f 102//97 103//97 100//97
f 98//98 104//98 90//98
f 100//99 104//99 98//99
f 103//100 104//100 100//100
f 105//101 104//101 106//101
f 106//102 104//102 103//102
f 90//103 104//103 80//103
f 79//104 7//104 73//104
f 73//105 7//105 5//105
f 107//106 9//106 108//106
f 108//107 9//107 104//107
f 71//108 68//108 69//108
f 7//109 68//109 71//109
f 12//110 17//110 9//110
f 14//111 17//111 12//111
f 15//112 17//112 14//112
f 9//113 17//113 104//113
f 65//114 61//114 64//114
f 68//115 61//115 65//115
f 7//116 61//116 68//116
f 79//117 61//117 7//117
f 19//118 21//118 17//118
f 104//119 21//119 80//119
f 17//120 21//120 104//120
f 61//121 57//121 60//121
f 24//122 25//122 21//122
f 25//123 27//123 21//123
f 27//124 30//124 21//124
f 55//125 51//125 53//125
f 55//126 49//126 51//126
f 31//127 33//127 30//127
f 30//128 33//128 21//128
f 49//129 46//129 47//129
f 57//130 46//130 55//130
f 79//131 46//131 61//131
f 61//132 46//132 57//132
f 55//133 46//133 49//133
f 35//134 39//134 33//134
f 38//135 39//135 35//135
f 80//136 43//136 79//136
f 79//137 43//137 46//137
f 21//138 42//138 80//138
f 39//139 42//139 33//139
f 33//140 42//140 21//140
f 80//141 42//141 43//141
f 109//142 73//142 75//142
f 109//143 79//143 73//143
f 73//144 76//144 75//144
f 73//145 74//145 76//145
f 79//146 109//146 110//146
f 77//147 110//147 111//147
f 77//148 79//148 110//148
f 78//149 111//149 112//149
f 78//150 77//150 111//150
f 80//151 112//151 113//151
f 80//152 78//152 112//152
f 84//153 113//153 114//153
f 84//154 80//154 113//154
f 83//155 114//155 115//155
f 83//156 84//156 114//156
f 81//157 115//157 116//157
f 81//158 83//158 115//158
f 82//159 116//159 117//159
f 82//160 81//160 116//160
f 85//161 82//161 117//161
f 85//162 117//162 118//162
f 86//163 85//163 118//163
f 86//164 118//164 119//164
f 87//165 86//165 119//165
f 87//166 119//166 120//166
f 88//167 87//167 120//167
f 88//168 120//168 121//168
f 89//169 88//169 121//169
f 89//170 121//170 122//170
f 90//171 89//171 122//171
f 90//172 122//172 123//172
f 91//173 90//173 123//173
f 91//174 123//174 124//174
f 92//175 91//175 124//175
f 92//176 124//176 125//176
f 93//177 92//177 125//177
f 93//178 125//178 126//178
f 94//179 93//179 126//179
f 94//180 126//180 127//180
f 95//181 94//181 127//181
f 95//182 127//182 128//182
f 96//183 95//183 128//183
f 96//184 128//184 129//184
f 97//185 96//185 129//185
f 97//186 129//186 130//186
f 98//187 130//187 131//187
f 98//188 97//188 130//188
f 99//189 131//189 132//189
f 99//190 98//190 131//190
f 100//191 132//191 133//191
f 100//192 99//192 132//192
f 101//193 133//193 134//193
f 101//194 100//194 133//194
f 102//195 134//195 135//195
f 102//196 101//196 134//196
f 103//197 135//197 136//197
f 103//198 102//198 135//198
f 106//199 136//199 137//199
f 106//200 103//200 136//200
f 105//201 137//201 138//201
f 105//202 106//202 137//202
f 104//203 138//203 139//203
f 104//204 105//204 138//204
f 108//205 139//205 140//205
f 108//206 104//206 139//206
f 107//207 108//207 140//207
f 9//208 140//208 10//208
f 9//209 107//209 140//209
f 72//210 70//210 8//210
f 70//211 67//211 8//211
f 67//212 66//212 8//212
f 63//213 62//213 66//213
f 66//214 62//214 8//214
f 58//215 56//215 59//215
f 59//216 54//216 62//216
f 56//217 54//217 59//217
f 54//218 52//218 62//218
f 50//219 48//219 52//219
f 52//220 48//220 62//220
f 45//221 44//221 48//221
f 8//222 75//222 6//222
f 48//223 40//223 62//223
f 44//224 40//224 48//224
f 41//225 40//225 44//225
f 40//226 37//226 62//226
f 37//227 36//227 62//227
f 36//228 34//228 62//228
f 62//229 34//229 8//229
f 32//230 29//230 34//230
f 34//231 28//231 8//231
f 29//232 28//232 34//232
f 23//233 22//233 26//233
f 22//234 20//234 26//234
f 16//235 13//235 18//235
f 8//236 109//236 75//236
f 8//237 110//237 109//237
f 10//238 140//238 11//238
f 11//239 140//239 13//239
f 18//240 140//240 20//240
f 13//241 140//241 18//241
f 26//242 139//242 28//242
f 140//243 139//243 20//243
f 20//244 139//244 26//244
f 110//245 112//245 111//245
f 110//246 113//246 112//246
f 138//247 137//247 139//247
f 113//248 115//248 114//248
f 136//249 135//249 137//249
f 137//250 134//250 139//250
f 139//251 134//251 28//251
f 135//252 134//252 137//252
f 28//253 134//253 8//253
f 115//254 117//254 116//254
f 113//255 117//255 115//255
f 133//256 132//256 134//256
f 132//257 131//257 134//257
f 117//258 120//258 118//258
f 118//259 120//259 119//259
f 131//260 130//260 134//260
f 120//261 122//261 121//261
f 117//262 122//262 120//262
f 8//263 128//263 110//263
f 129//264 128//264 130//264
f 134//265 128//265 8//265
f 130//266 128//266 134//266
f 127//267 126//267 128//267
f 128//268 126//268 110//268
f 122//269 125//269 123//269
f 123//270 125//270 124//270
f 110//271 125//271 113//271
f 113//272 125//272 117//272
f 117//273 125//273 122//273
f 126//274 125//274 110//274
f 74//275 4//275 76//275
f 76//276 4//276 2//276
